<?xml version="1.0" encoding="UTF-8"?>
<svg width="664px" height="327px" viewBox="0 0 664 327" version="1.1" xmlns="http://www.w3.org/2000/svg" xmlns:xlink="http://www.w3.org/1999/xlink">
    <title>zheshilogo</title>
    <g id="v2.0带中文" stroke="none" stroke-width="1" fill="none" fill-rule="evenodd">
        <path d="M664,0 L664,327 L0,327 L0,0 L664,0 Z M529.276,171.462489 L474.122,171.462489 L473.698,171.472492 C469.21,171.692557 465.638,175.40965 465.638,179.96499 L465.638,179.96499 L465.638,226.726743 L465.648,227.142866 C465.848,231.278082 469.006,234.695087 473.148,235.173227 C478.788,229.525566 484.424,223.873904 490.064,218.224242 L490.064,218.224242 L482.608,218.224242 L482.608,188.46549 L520.79,188.46549 L520.79,193.448956 L427.456,286.974463 L427.456,299 L439.454,299 L535.274,202.979759 C537.028,201.223242 537.758,199.456723 537.758,196.969991 L537.758,196.969991 L537.758,179.96499 L537.748,179.540865 C537.528,175.041542 533.818,171.462489 529.276,171.462489 L529.276,171.462489 Z M515.818,235.231244 L503.818,247.254781 L530.002,273.492498 L542,273.492498 L542,261.466961 L515.818,235.231244 Z M444.426,201.219241 L427.456,201.219241 L427.456,218.224242 L435.94,218.224242 L435.94,272.460194 L452.908,255.457193 L452.908,209.723742 L452.898,209.299618 C452.678,204.802295 448.968,201.219241 444.426,201.219241 L444.426,201.219241 Z M308.666,171.46449 L291.698,171.46449 L291.698,256.487496 L308.666,256.487496 L308.666,171.46449 Z M410.486,171.462489 L398.486,171.462489 L325.636,244.459959 L325.636,256.485496 L337.636,256.485496 L410.486,183.488026 L410.486,171.462489 Z M240.79,171.462489 L223.82,171.462489 L223.82,256.485496 L240.79,256.485496 L240.79,222.477493 L287.458,222.477493 L287.458,205.472492 L240.79,205.472492 L240.79,171.462489 Z M206.85,171.462489 L147.456,171.462489 C133.396,171.462489 122,182.879847 122,196.969991 C122,211.054134 133.396,222.477493 147.456,222.477493 L147.456,222.477493 L181.396,222.477493 C186.08,222.477493 189.88,226.282613 189.88,230.977994 C189.88,235.675375 186.08,239.480494 181.396,239.480494 L181.396,239.480494 L122,239.480494 L122,256.485496 L181.396,256.485496 C195.452,256.485496 206.85,245.066137 206.85,230.977994 C206.85,216.891851 195.452,205.472492 181.396,205.472492 L181.396,205.472492 L147.456,205.472492 C142.768,205.472492 138.97,201.667373 138.97,196.969991 C138.97,192.27461 142.768,188.46549 147.456,188.46549 L147.456,188.46549 L206.85,188.46549 L206.85,171.462489 Z M452.91,171.460488 L431.696,171.460488 L431.696,188.46549 L452.91,188.46549 L452.91,171.460488 Z M410.486,69.4304796 L334.122,69.4304796 L333.698,69.4424831 C329.21,69.6625478 325.638,73.3796411 325.638,77.9349809 L325.638,77.9349809 L325.638,145.952986 L325.65,146.379112 C325.87,150.878435 329.58,154.457487 334.122,154.457487 L334.122,154.457487 L410.486,154.457487 L410.486,137.450485 L342.608,137.450485 L342.608,86.435481 L410.486,86.435481 L410.486,69.4304796 Z M486.848,27 L469.88,27 L469.88,35.4204766 L440.184,35.4204766 L440.184,52.4274787 L469.88,52.4274787 L469.88,65.909444 L427.456,108.421948 L427.456,120.447485 L439.454,120.447485 L448.668,111.210768 L448.668,145.952986 L448.68,146.377111 C448.9,150.878435 452.61,154.457487 457.152,154.457487 L457.152,154.457487 L473.394,154.457487 L515.816,111.944984 L516.548,111.944984 L516.548,137.452486 L496.364,137.452486 L479.364,154.457487 L525.03,154.457487 L525.454,154.447485 C529.944,154.225419 533.516,150.508326 533.516,145.952986 L533.516,145.952986 L533.516,103.442483 L533.506,103.018358 C533.284,98.5210356 529.576,94.9419829 525.03,94.9419829 L525.03,94.9419829 L464.904,94.9399823 L477.636,82.1862312 L542,82.1862312 L542,65.1812298 L520.062,65.1812298 L542,43.1947632 L542,31.1712268 L530.002,31.1712268 L496.062,65.1812298 L486.848,65.1812298 L486.848,52.4274787 L502.79,52.4274787 L519.786,35.4204766 L486.848,35.4204766 L486.848,27 Z M206.85,137.452486 L156.97,137.452486 L139.998,154.455487 L206.85,154.457487 L206.85,137.452486 Z M240.79,69.4304796 L223.82,69.4304796 L223.82,154.457487 L240.79,154.457487 L240.79,120.445484 L287.458,120.445484 L287.458,103.442483 L240.79,103.442483 L240.79,69.4304796 Z M308.666,69.4304796 L291.698,69.4304796 L291.698,154.457487 L308.666,154.457487 L308.666,69.4304796 Z M204.364,71.9212121 C201.05,68.6042365 195.678,68.6042365 192.364,71.9212121 C169.738,94.5978817 147.112,117.27055 124.486,139.941218 C121.172,143.264195 121.172,148.645778 124.486,151.964754 C127.798,155.285731 133.172,155.285731 136.486,151.964754 L136.486,151.964754 L204.364,83.946749 C207.678,80.6257723 207.678,75.2421889 204.364,71.9212121 Z M491.82,111.944984 L466.364,137.452486 L465.638,137.452486 L465.638,111.944984 L491.82,111.944984 Z M406.204,102.842307 L346.808,102.842307 L346.808,119.847308 L406.204,119.847308 L406.204,102.842307 Z M188.854,69.4304796 L122,69.4304796 L122,86.4374816 L171.88,86.4374816 L188.854,69.4304796 Z M464.608,65.1812298 L431.696,65.1812298 L431.696,82.1842307 L447.64,82.1842307 L464.608,65.1812298 Z" id="zheshilogo" fill="#000000"></path>
    </g>
</svg>